<svg data-v-423bf9ae="" xmlns="http://www.w3.org/2000/svg" viewBox="0 0 335.5947178205811 163" class="iconAbove"><!----><!----><!----><g data-v-423bf9ae="" id="365d11bf-6a52-46f2-b606-aecb53773b95" fill="#ffffff" transform="matrix(4.405286380627388,0,0,4.405286380627388,-1.2775334827166205,92.8678408193617)"><path d="M4.42 13.75Q3.23 13.75 2.11 13.45Q0.99 13.16 0.29 12.67L0.29 12.67L1.20 10.63Q1.86 11.06 2.73 11.33Q3.60 11.59 4.44 11.59L4.44 11.59Q6.03 11.59 6.03 10.79L6.03 10.79Q6.03 10.37 5.58 10.17Q5.12 9.97 4.12 9.74L4.12 9.74Q3.01 9.51 2.27 9.23Q1.53 8.96 0.99 8.36Q0.46 7.76 0.46 6.73L0.46 6.73Q0.46 5.84 0.95 5.12Q1.44 4.40 2.42 3.98Q3.39 3.56 4.80 3.56L4.80 3.56Q5.77 3.56 6.71 3.77Q7.64 3.99 8.36 4.41L8.36 4.41L7.50 6.47Q6.10 5.71 4.79 5.71L4.79 5.71Q3.96 5.71 3.58 5.96Q3.21 6.20 3.21 6.59L3.21 6.59Q3.21 6.99 3.65 7.18Q4.10 7.38 5.10 7.59L5.10 7.59Q6.22 7.83 6.95 8.10Q7.69 8.37 8.22 8.97Q8.76 9.56 8.76 10.58L8.76 10.58Q8.76 11.47 8.27 12.18Q7.78 12.89 6.80 13.32Q5.82 13.75 4.42 13.75L4.42 13.75ZM9.91 13.55L9.91 5.96L12.57 5.96L12.57 13.55L9.91 13.55ZM11.24 5.12Q10.51 5.12 10.07 4.72Q9.62 4.31 9.62 3.71L9.62 3.71Q9.62 3.11 10.07 2.70Q10.51 2.30 11.24 2.30L11.24 2.30Q11.97 2.30 12.42 2.68Q12.87 3.07 12.87 3.67L12.87 3.67Q12.87 4.30 12.42 4.71Q11.97 5.12 11.24 5.12L11.24 5.12ZM19.70 3.16L22.36 3.16L22.36 13.55L19.82 13.55L19.82 12.80Q19.08 13.68 17.60 13.68L17.60 13.68Q16.56 13.68 15.71 13.20Q14.85 12.71 14.36 11.82Q13.86 10.92 13.86 9.74L13.86 9.74Q13.86 8.57 14.36 7.68Q14.85 6.79 15.71 6.31Q16.56 5.84 17.60 5.84L17.60 5.84Q18.96 5.84 19.70 6.62L19.70 6.62L19.70 3.16ZM18.16 11.56Q18.84 11.56 19.29 11.08Q19.74 10.60 19.74 9.74L19.74 9.74Q19.74 8.90 19.30 8.43Q18.86 7.95 18.16 7.95L18.16 7.95Q17.46 7.95 17.01 8.43Q16.56 8.90 16.56 9.74L16.56 9.74Q16.56 10.60 17.01 11.08Q17.46 11.56 18.16 11.56L18.16 11.56ZM31.82 9.77Q31.82 9.80 31.78 10.43L31.78 10.43L26.26 10.43Q26.43 11.02 26.91 11.33Q27.40 11.65 28.13 11.65L28.13 11.65Q28.67 11.65 29.07 11.49Q29.47 11.34 29.88 10.99L29.88 10.99L31.28 12.45Q30.17 13.68 28.04 13.68L28.04 13.68Q26.71 13.68 25.70 13.17Q24.70 12.67 24.14 11.77Q23.59 10.88 23.59 9.74L23.59 9.74Q23.59 8.62 24.13 7.73Q24.67 6.85 25.62 6.34Q26.57 5.84 27.76 5.84L27.76 5.84Q28.90 5.84 29.82 6.31Q30.74 6.78 31.28 7.66Q31.82 8.55 31.82 9.77L31.82 9.77ZM27.78 7.73Q27.16 7.73 26.75 8.08Q26.33 8.43 26.22 9.03L26.22 9.03L29.33 9.03Q29.22 8.43 28.80 8.08Q28.39 7.73 27.78 7.73L27.78 7.73ZM42.87 13.26L44.07 14.69Q43.58 15.29 42.88 15.60Q42.17 15.92 41.33 15.92L41.33 15.92Q40.52 15.92 39.86 15.71Q39.20 15.50 38.54 15.02Q37.87 14.53 37.04 13.66L37.04 13.66Q35.77 13.45 34.78 12.75Q33.78 12.05 33.23 10.99Q32.68 9.93 32.68 8.65L32.68 8.65Q32.68 7.20 33.38 6.03Q34.09 4.87 35.33 4.21Q36.57 3.56 38.12 3.56L38.12 3.56Q39.68 3.56 40.92 4.21Q42.15 4.87 42.86 6.03Q43.57 7.20 43.57 8.65L43.57 8.65Q43.57 10.30 42.67 11.57Q41.76 12.84 40.24 13.38L40.24 13.38Q40.52 13.69 40.79 13.82Q41.06 13.94 41.38 13.94L41.38 13.94Q42.21 13.94 42.87 13.26L42.87 13.26ZM35.48 8.65Q35.48 9.48 35.83 10.11Q36.18 10.75 36.78 11.10Q37.38 11.45 38.12 11.45L38.12 11.45Q38.86 11.45 39.47 11.10Q40.07 10.75 40.42 10.11Q40.77 9.48 40.77 8.65L40.77 8.65Q40.77 7.83 40.42 7.19Q40.07 6.55 39.47 6.20Q38.86 5.85 38.12 5.85L38.12 5.85Q37.38 5.85 36.78 6.20Q36.18 6.55 35.83 7.19Q35.48 7.83 35.48 8.65L35.48 8.65ZM50.22 5.96L52.88 5.96L52.88 13.55L50.34 13.55L50.34 12.74Q49.92 13.20 49.34 13.44Q48.75 13.68 48.09 13.68L48.09 13.68Q46.62 13.68 45.75 12.81Q44.87 11.94 44.87 10.21L44.87 10.21L44.87 5.96L47.53 5.96L47.53 9.77Q47.53 10.63 47.85 11.02Q48.17 11.41 48.79 11.41L48.79 11.41Q49.42 11.41 49.82 10.97Q50.22 10.53 50.22 9.62L50.22 9.62L50.22 5.96ZM62.34 9.77Q62.34 9.80 62.30 10.43L62.30 10.43L56.78 10.43Q56.95 11.02 57.44 11.33Q57.92 11.65 58.65 11.65L58.65 11.65Q59.19 11.65 59.59 11.49Q59.99 11.34 60.40 10.99L60.40 10.99L61.80 12.45Q60.69 13.68 58.56 13.68L58.56 13.68Q57.23 13.68 56.22 13.17Q55.22 12.67 54.66 11.77Q54.11 10.88 54.11 9.74L54.11 9.74Q54.11 8.62 54.65 7.73Q55.19 6.85 56.14 6.34Q57.09 5.84 58.28 5.84L58.28 5.84Q59.42 5.84 60.34 6.31Q61.26 6.78 61.80 7.66Q62.34 8.55 62.34 9.77L62.34 9.77ZM58.30 7.73Q57.68 7.73 57.27 8.08Q56.85 8.43 56.74 9.03L56.74 9.03L59.85 9.03Q59.74 8.43 59.33 8.08Q58.91 7.73 58.30 7.73L58.30 7.73ZM66.33 13.68Q65.38 13.68 64.46 13.46Q63.53 13.24 62.97 12.89L62.97 12.89L63.77 11.07Q64.29 11.40 65.00 11.58Q65.72 11.77 66.42 11.77L66.42 11.77Q67.06 11.77 67.33 11.64Q67.61 11.51 67.61 11.26L67.61 11.26Q67.61 11.00 67.28 10.90Q66.95 10.79 66.23 10.70L66.23 10.70Q65.32 10.58 64.69 10.40Q64.05 10.22 63.59 9.73Q63.13 9.24 63.13 8.36L63.13 8.36Q63.13 7.63 63.56 7.06Q63.99 6.50 64.83 6.17Q65.66 5.84 66.82 5.84L66.82 5.84Q67.65 5.84 68.46 6.01Q69.27 6.17 69.82 6.48L69.82 6.48L69.02 8.29Q68.01 7.73 66.84 7.73L66.84 7.73Q66.21 7.73 65.91 7.87Q65.62 8.02 65.62 8.26L65.62 8.26Q65.62 8.53 65.94 8.63Q66.26 8.74 67.00 8.85L67.00 8.85Q67.94 8.99 68.56 9.17Q69.17 9.35 69.63 9.83Q70.08 10.32 70.08 11.19L70.08 11.19Q70.08 11.90 69.65 12.47Q69.22 13.03 68.37 13.36Q67.52 13.68 66.33 13.68L66.33 13.68ZM75.81 11.38L76.47 13.24Q76.13 13.45 75.65 13.57Q75.17 13.68 74.62 13.68L74.62 13.68Q73.14 13.68 72.34 12.95Q71.54 12.22 71.54 10.78L71.54 10.78L71.54 8.23L70.43 8.23L70.43 6.24L71.54 6.24L71.54 4.27L74.20 4.27L74.20 6.24L75.94 6.24L75.94 8.23L74.20 8.23L74.20 10.75Q74.20 11.16 74.42 11.39Q74.63 11.62 75.00 11.62L75.00 11.62Q75.46 11.62 75.81 11.38L75.81 11.38Z"></path></g><!----><g data-v-423bf9ae="" id="4dae142b-39f9-4fbf-9c42-0ad711392c1c" transform="matrix(1.40625,0,0,1.40625,123,1.000000193772756)" stroke="none" fill="#CF4381"><path d="M19.52 24c.55 0 1-.45 1-1s-.45-1-1-1h-.01c-.55 0-1 .45-1 1s.46 1 1.01 1zM44.52 24c.55 0 1-.45 1-1s-.45-1-1-1h-.01c-.55 0-1 .45-1 1s.46 1 1.01 1zM19 34h26c.55 0 1-.45 1-1s-.45-1-1-1H19c-.55 0-1 .45-1 1s.45 1 1 1zM19 40h26c.55 0 1-.45 1-1s-.45-1-1-1H19c-.55 0-1 .45-1 1s.45 1 1 1zM19 46h26c.55 0 1-.45 1-1s-.45-1-1-1H19c-.55 0-1 .45-1 1s.45 1 1 1zM25.77 27.21c.1.46.51.79.98.79h10.5c.47 0 .88-.33.98-.79l1.75-8a.99.99 0 00-.35-.99c-.3-.24-.7-.29-1.04-.13L35 19.73l-2.15-3.28c-.37-.56-1.3-.56-1.67 0l-2.15 3.28-3.59-1.64a.984.984 0 00-1.04.13c-.29.24-.43.62-.35.99l1.72 8zm3.19-5.3c.45.21.98.05 1.25-.36L32 18.82l1.79 2.73c.27.41.8.57 1.25.36l2.55-1.17L36.45 26h-8.89l-1.15-5.26 2.55 1.17z"></path><path d="M60 54h-1.62c-.13-.48-.28-.94-.45-1.37A1 1 0 0057 52h-3V27.89c0-.84-.33-1.63-.92-2.22l-1.86-1.86c-.44-.44-.44-1.17 0-1.61l1.86-1.86c.59-.59.92-1.38.92-2.22V12h3a1 1 0 00.93-.63c.17-.43.32-.89.45-1.37H60c2.21 0 4-1.79 4-4s-1.79-4-4-4h-1.62c-.13-.48-.28-.95-.45-1.37A1 1 0 0057 0H7a1 1 0 00-.93.63c-.17.42-.31.89-.45 1.37H4C1.79 2 0 3.79 0 6s1.79 4 4 4h1.62c.14.48.28.95.45 1.37A1 1 0 007 12h3v6.11c0 .84.33 1.63.92 2.22l1.86 1.86a1.16 1.16 0 010 1.62l-1.86 1.86c-.59.59-.92 1.38-.92 2.22V52H7a1 1 0 00-.93.63c-.17.42-.31.89-.45 1.37H4c-2.21 0-4 1.79-4 4s1.79 4 4 4h1.62c.14.48.28.95.45 1.37A1 1 0 007 64h50a1 1 0 00.93-.63c.17-.43.32-.89.45-1.37H60c2.21 0 4-1.79 4-4s-1.79-4-4-4zm0-50c1.1 0 2 .9 2 2s-.9 2-2 2h-1.19l.03-.26.03-.28c.1-.97.1-1.95 0-2.92l-.03-.27-.03-.27H60zM48 2v2c0 1.1-.9 2-2 2s-2-.9-2-2V2h4zM19 2v2c0 1.1-.9 2-2 2s-2-.9-2-2V2h4zM4 8c-1.1 0-2-.9-2-2s.9-2 2-2h1.19c-.01.08-.01.17-.02.25l-.03.29c-.05.49-.09.97-.09 1.46s.03.97.08 1.45l.03.3c.02.08.02.17.03.25H4zm3.36.78A13.14 13.14 0 017.05 6c0-.93.1-1.87.31-2.78.11-.44.22-.84.34-1.22H13v2c0 2.21 1.79 4 4 4s4-1.79 4-4V2h21v2c0 2.21 1.79 4 4 4s4-1.79 4-4V2h6.3c.12.38.23.78.33 1.22.21.91.31 1.84.31 2.78 0 .93-.1 1.87-.31 2.78-.1.44-.21.84-.33 1.22H7.7c-.12-.38-.23-.78-.34-1.22zM12 27.89c0-.3.12-.59.33-.81l1.86-1.86c.59-.59.92-1.38.92-2.22s-.33-1.63-.92-2.22l-1.86-1.86c-.22-.21-.33-.5-.33-.81V12h40v6.11c0 .3-.12.59-.33.81l-1.86 1.86a3.15 3.15 0 000 4.44l1.86 1.86c.22.22.33.5.33.81V52H12V27.89zM19.58 54h24.84c-.08.08-.17.15-.25.22-2.05 1.63-6.94 2.72-12.17 2.72s-10.12-1.09-12.17-2.72c-.08-.07-.17-.14-.25-.22zM4 60c-1.1 0-2-.9-2-2s.9-2 2-2h1.19l-.03.25-.03.29c-.1.96-.1 1.94 0 2.9l.03.29c.01.08.01.17.03.25H4zm3.7 2c-.12-.38-.23-.78-.34-1.22a12.38 12.38 0 010-5.55c.1-.44.21-.85.34-1.22h9.48c.05.15.13.29.2.43.01.01.01.02.01.03.12.2.27.4.44.6.04.05.09.1.13.15.18.19.38.39.61.57 2.45 1.95 7.59 3.16 13.42 3.16s10.97-1.21 13.42-3.16c.23-.19.43-.38.61-.57.05-.05.09-.1.13-.15.17-.2.32-.39.44-.6.01-.01.01-.02.01-.03.08-.14.15-.29.2-.43h9.5c.12.38.23.78.33 1.22.42 1.82.42 3.74 0 5.55-.1.44-.21.84-.33 1.22H7.7zM60 60h-1.19l.03-.26.03-.28c.1-.97.1-1.95 0-2.92l-.03-.28-.03-.26H60c1.1 0 2 .9 2 2s-.9 2-2 2z"></path></g><!----></svg>